<svg width="26" height="25" viewBox="0 0 26 25" fill="none" xmlns="http://www.w3.org/2000/svg">
<g id="ad" clip-path="url(#clip0_133_761)">
<path id="Vector" d="M7.81641 13.2812H9.62109L8.71875 10.6826L7.81641 13.2812ZM17.3125 12.5C16.6665 12.5 16.1406 13.0259 16.1406 13.6719C16.1406 14.3179 16.6665 14.8438 17.3125 14.8438C17.9585 14.8438 18.4844 14.3179 18.4844 13.6719C18.4844 13.0259 17.9585 12.5 17.3125 12.5ZM22.7812 3.125H2.46875C1.1748 3.125 0.125 4.1748 0.125 5.46875V19.5312C0.125 20.8252 1.1748 21.875 2.46875 21.875H22.7812C24.0752 21.875 25.125 20.8252 25.125 19.5312V5.46875C25.125 4.1748 24.0752 3.125 22.7812 3.125ZM12.3604 17.1875H11.5332C11.2007 17.1875 10.9043 16.9766 10.7949 16.6626L10.4351 15.625H7.00293L6.64258 16.6626C6.58931 16.816 6.48959 16.9489 6.35728 17.043C6.22497 17.137 6.06664 17.1876 5.9043 17.1875H5.07715C4.53955 17.1875 4.1626 16.6577 4.33887 16.1499L6.96094 8.59961C7.04082 8.36968 7.19034 8.17034 7.38871 8.02929C7.58708 7.88823 7.82446 7.81246 8.06787 7.8125H9.36963C9.61311 7.81246 9.85055 7.88829 10.0489 8.02944C10.2473 8.17059 10.3968 8.37006 10.4766 8.6001L13.0981 16.1499C13.2744 16.6577 12.8975 17.1875 12.3604 17.1875ZM20.8281 16.4062C20.8281 16.8379 20.4785 17.1875 20.0469 17.1875H19.2656C19.0288 17.1875 18.8242 17.0767 18.6807 16.9102C18.2598 17.0889 17.7974 17.1875 17.3125 17.1875C15.374 17.1875 13.7969 15.6104 13.7969 13.6719C13.7969 11.7334 15.374 10.1562 17.3125 10.1562C17.7256 10.1562 18.1162 10.2407 18.4844 10.3721V8.59375C18.4844 8.16211 18.834 7.8125 19.2656 7.8125H20.0469C20.4785 7.8125 20.8281 8.16211 20.8281 8.59375V16.4062Z" fill="#010101"/>
</g>
<defs>
<clipPath id="clip0_133_761">
<rect width="25" height="25" fill="white" transform="translate(0.125)"/>
</clipPath>
</defs>
</svg>
