<svg width="40" height="35" viewBox="0 0 40 35" fill="none" xmlns="http://www.w3.org/2000/svg">
<g id="address-card" clip-path="url(#clip0_133_3048)">
<path id="Vector" d="M36.0938 2.1875H3.28125C1.46973 2.1875 0 3.65723 0 5.46875V29.5312C0 31.3428 1.46973 32.8125 3.28125 32.8125H36.0938C37.9053 32.8125 39.375 31.3428 39.375 29.5312V5.46875C39.375 3.65723 37.9053 2.1875 36.0938 2.1875ZM12.0312 8.75C14.4443 8.75 16.4062 10.7119 16.4062 13.125C16.4062 15.5381 14.4443 17.5 12.0312 17.5C9.61816 17.5 7.65625 15.5381 7.65625 13.125C7.65625 10.7119 9.61816 8.75 12.0312 8.75ZM19.6875 24.9375C19.6875 25.6621 19.0039 26.25 18.1562 26.25H5.90625C5.05859 26.25 4.375 25.6621 4.375 24.9375V23.625C4.375 21.4512 6.43262 19.6875 8.96875 19.6875H9.31055C10.1514 20.0361 11.0674 20.2344 12.0312 20.2344C12.9951 20.2344 13.918 20.0361 14.752 19.6875H15.0938C17.6299 19.6875 19.6875 21.4512 19.6875 23.625V24.9375ZM35 21.3281C35 21.6289 34.7539 21.875 34.4531 21.875H24.6094C24.3086 21.875 24.0625 21.6289 24.0625 21.3281V20.2344C24.0625 19.9336 24.3086 19.6875 24.6094 19.6875H34.4531C34.7539 19.6875 35 19.9336 35 20.2344V21.3281ZM35 16.9531C35 17.2539 34.7539 17.5 34.4531 17.5H24.6094C24.3086 17.5 24.0625 17.2539 24.0625 16.9531V15.8594C24.0625 15.5586 24.3086 15.3125 24.6094 15.3125H34.4531C34.7539 15.3125 35 15.5586 35 15.8594V16.9531ZM35 12.5781C35 12.8789 34.7539 13.125 34.4531 13.125H24.6094C24.3086 13.125 24.0625 12.8789 24.0625 12.5781V11.4844C24.0625 11.1836 24.3086 10.9375 24.6094 10.9375H34.4531C34.7539 10.9375 35 11.1836 35 11.4844V12.5781Z" fill="#6F6D71"/>
</g>
<defs>
<clipPath id="clip0_133_3048">
<rect width="39.375" height="35" fill="white"/>
</clipPath>
</defs>
</svg>
