<svg width="29" height="26" viewBox="0 0 29 26" fill="none" xmlns="http://www.w3.org/2000/svg">
<g id="address-card" clip-path="url(#clip0_133_647)">
<path id="Vector" d="M25.7812 2.0625H2.34375C1.0498 2.0625 0 3.1123 0 4.40625V21.5938C0 22.8877 1.0498 23.9375 2.34375 23.9375H25.7812C27.0752 23.9375 28.125 22.8877 28.125 21.5938V4.40625C28.125 3.1123 27.0752 2.0625 25.7812 2.0625ZM8.59375 6.75C10.3174 6.75 11.7188 8.15137 11.7188 9.875C11.7188 11.5986 10.3174 13 8.59375 13C6.87012 13 5.46875 11.5986 5.46875 9.875C5.46875 8.15137 6.87012 6.75 8.59375 6.75ZM14.0625 18.3125C14.0625 18.8301 13.5742 19.25 12.9688 19.25H4.21875C3.61328 19.25 3.125 18.8301 3.125 18.3125V17.375C3.125 15.8223 4.59473 14.5625 6.40625 14.5625H6.65039C7.25098 14.8115 7.90527 14.9531 8.59375 14.9531C9.28223 14.9531 9.94141 14.8115 10.5371 14.5625H10.7812C12.5928 14.5625 14.0625 15.8223 14.0625 17.375V18.3125ZM25 15.7344C25 15.9492 24.8242 16.125 24.6094 16.125H17.5781C17.3633 16.125 17.1875 15.9492 17.1875 15.7344V14.9531C17.1875 14.7383 17.3633 14.5625 17.5781 14.5625H24.6094C24.8242 14.5625 25 14.7383 25 14.9531V15.7344ZM25 12.6094C25 12.8242 24.8242 13 24.6094 13H17.5781C17.3633 13 17.1875 12.8242 17.1875 12.6094V11.8281C17.1875 11.6133 17.3633 11.4375 17.5781 11.4375H24.6094C24.8242 11.4375 25 11.6133 25 11.8281V12.6094ZM25 9.48438C25 9.69922 24.8242 9.875 24.6094 9.875H17.5781C17.3633 9.875 17.1875 9.69922 17.1875 9.48438V8.70312C17.1875 8.48828 17.3633 8.3125 17.5781 8.3125H24.6094C24.8242 8.3125 25 8.48828 25 8.70312V9.48438Z" fill="#010101"/>
</g>
<defs>
<clipPath id="clip0_133_647">
<rect width="28.125" height="25" fill="white" transform="translate(0 0.5)"/>
</clipPath>
</defs>
</svg>
