<svg width="35" height="35" viewBox="0 0 35 35" fill="none" xmlns="http://www.w3.org/2000/svg">
<g id="audio-description">
<path id="Vector" d="M11.1375 16.318L11.7405 18.4136H9.99011L10.6081 16.3182C10.6954 16.016 10.7894 15.635 10.8728 15.2761C10.9562 15.635 11.0502 16.0159 11.1375 16.318ZM22.5175 14.1237H21.5247V20.8763H22.5175C24.553 20.8763 25.674 19.6679 25.674 17.4737C25.674 15.2698 24.4784 14.1237 22.5175 14.1237ZM35 7.65625V27.3438C35 29.156 33.531 30.625 31.7188 30.625H3.28125C1.46904 30.625 0 29.156 0 27.3438V7.65625C0 5.84404 1.46904 4.375 3.28125 4.375H31.7188C33.531 4.375 35 5.84404 35 7.65625ZM16.7794 22.9783L12.8763 11.4939C12.8212 11.3316 12.7166 11.1907 12.5773 11.091C12.438 10.9912 12.271 10.9375 12.0996 10.9375H9.64592C9.47457 10.9375 9.30752 10.9912 9.16822 11.091C9.02892 11.1907 8.92436 11.3316 8.86922 11.4939L4.9661 22.9783C4.78536 23.5103 5.18089 24.0625 5.7428 24.0625H7.73432C7.91245 24.0625 8.08574 24.0045 8.228 23.8973C8.37026 23.7901 8.47375 23.6395 8.52284 23.4683L9.10896 21.4239H12.6204L13.2215 23.4731C13.2714 23.6432 13.375 23.7926 13.5169 23.8988C13.6588 24.0051 13.8313 24.0625 14.0086 24.0625H16.0028C16.5647 24.0625 16.9602 23.5103 16.7794 22.9783ZM29.4055 17.4736C29.4055 13.442 26.8134 10.9375 22.6406 10.9375H18.7191C18.2661 10.9375 17.8988 11.3048 17.8988 11.7578V23.2422C17.8988 23.6952 18.2661 24.0625 18.7191 24.0625H22.6406C26.8134 24.0625 29.4055 21.5378 29.4055 17.4736Z" fill="#010101"/>
</g>
</svg>
