<svg width="25" height="25" viewBox="0 0 25 25" fill="none" xmlns="http://www.w3.org/2000/svg">
<g id="audio-description">
<path id="Vector" d="M7.95532 11.6557L8.38608 13.1525H7.13579L7.57725 11.6559C7.6396 11.44 7.70669 11.1679 7.76631 10.9115C7.82588 11.1679 7.89297 11.4399 7.95532 11.6557ZM16.0839 10.0884H15.3748V14.9117H16.0839C17.5378 14.9117 18.3386 14.0485 18.3386 12.4812C18.3386 10.907 17.4846 10.0884 16.0839 10.0884ZM25 5.46875V19.5312C25 20.8257 23.9507 21.875 22.6562 21.875H2.34375C1.04932 21.875 0 20.8257 0 19.5312V5.46875C0 4.17432 1.04932 3.125 2.34375 3.125H22.6562C23.9507 3.125 25 4.17432 25 5.46875ZM11.9853 16.413L9.19736 8.20991C9.15798 8.09403 9.08329 7.99339 8.98379 7.92211C8.88429 7.85084 8.76497 7.81251 8.64258 7.8125H6.88994C6.76755 7.81251 6.64823 7.85084 6.54873 7.92211C6.44923 7.99339 6.37454 8.09403 6.33516 8.20991L3.54722 16.413C3.41812 16.7931 3.70063 17.1875 4.102 17.1875H5.52451C5.65175 17.1875 5.77553 17.1461 5.87714 17.0695C5.97875 16.9929 6.05268 16.8853 6.08774 16.763L6.5064 15.3028H9.01455L9.4439 16.7665C9.47954 16.888 9.55359 16.9947 9.65495 17.0706C9.75631 17.1465 9.87953 17.1875 10.0062 17.1875H11.4306C11.8319 17.1875 12.1145 16.7931 11.9853 16.413ZM21.0039 12.4812C21.0039 9.60142 19.1524 7.8125 16.1719 7.8125H13.3708C13.0472 7.8125 12.7849 8.07485 12.7849 8.39844V16.6016C12.7849 16.9251 13.0472 17.1875 13.3708 17.1875H16.1719C19.1524 17.1875 21.0039 15.3841 21.0039 12.4812Z" fill="#FEFEFE"/>
</g>
</svg>
