<svg width="35" height="35" viewBox="0 0 35 35" fill="none" xmlns="http://www.w3.org/2000/svg">
<g id="blog" clip-path="url(#clip0_133_317)">
<path id="Vector" d="M11.7715 15.5037C10.7734 15.3055 9.84375 16.1121 9.84375 17.1307V20.576C9.84375 21.2733 10.3291 21.8338 10.9854 22.0799C12.2295 22.5447 13.125 23.7479 13.125 25.1561C13.125 26.9676 11.6553 28.4373 9.84375 28.4373C8.03223 28.4373 6.5625 26.9676 6.5625 25.1561V8.20295C6.5625 7.29377 5.83105 6.56233 4.92188 6.56233H1.64062C0.731445 6.56233 0 7.29377 0 8.20295V25.1561C0 31.2742 5.6123 36.1072 11.9629 34.7742C15.6816 33.9949 18.6826 30.9871 19.4619 27.2752C20.6514 21.6082 16.9326 16.5291 11.7715 15.5037ZM14.2871 -0.000174273C13.6582 -0.034354 13.125 0.46467 13.125 1.09358V3.25373C13.125 3.83479 13.5762 4.3133 14.1504 4.34065C22.9961 4.81916 30.1055 11.9969 30.6182 20.8494C30.6523 21.4237 31.1309 21.8748 31.7051 21.8748H33.8994C34.5283 21.8748 35.0273 21.3416 34.9932 20.7127C34.4121 9.55647 25.4434 0.587716 14.2871 -0.000174273ZM14.3076 6.56233C13.6719 6.51447 13.125 7.02033 13.125 7.66291V9.85725C13.125 10.4315 13.5693 10.9031 14.1367 10.9442C19.3867 11.3748 23.5703 15.6063 24.042 20.8699C24.0967 21.4373 24.5615 21.8748 25.1289 21.8748H27.3301C27.9658 21.8748 28.4785 21.328 28.4307 20.6922C27.8564 13.1658 21.834 7.14338 14.3076 6.56233Z" fill="#010101"/>
</g>
<defs>
<clipPath id="clip0_133_317">
<rect width="35" height="35" fill="white"/>
</clipPath>
</defs>
</svg>
