<svg width="65" height="65" viewBox="0 0 65 65" fill="none" xmlns="http://www.w3.org/2000/svg">
<g id="border-none" clip-path="url(#clip0_133_3597)">
<path id="Vector" d="M34.8214 28.4375H30.1786C29.5629 28.4375 28.9724 28.6515 28.5371 29.0324C28.1017 29.4134 27.8571 29.93 27.8571 30.4688V34.5312C27.8571 35.07 28.1017 35.5866 28.5371 35.9676C28.9724 36.3485 29.5629 36.5625 30.1786 36.5625H34.8214C35.4371 36.5625 36.0276 36.3485 36.4629 35.9676C36.8983 35.5866 37.1429 35.07 37.1429 34.5312V30.4688C37.1429 29.93 36.8983 29.4134 36.4629 29.0324C36.0276 28.6515 35.4371 28.4375 34.8214 28.4375ZM48.75 28.4375H44.1071C43.4915 28.4375 42.901 28.6515 42.4656 29.0324C42.0303 29.4134 41.7857 29.93 41.7857 30.4688V34.5312C41.7857 35.07 42.0303 35.5866 42.4656 35.9676C42.901 36.3485 43.4915 36.5625 44.1071 36.5625H48.75C49.3657 36.5625 49.9561 36.3485 50.3915 35.9676C50.8269 35.5866 51.0714 35.07 51.0714 34.5312V30.4688C51.0714 29.93 50.8269 29.4134 50.3915 29.0324C49.9561 28.6515 49.3657 28.4375 48.75 28.4375ZM62.6786 28.4375H58.0357C57.42 28.4375 56.8296 28.6515 56.3942 29.0324C55.9589 29.4134 55.7143 29.93 55.7143 30.4688V34.5312C55.7143 35.07 55.9589 35.5866 56.3942 35.9676C56.8296 36.3485 57.42 36.5625 58.0357 36.5625H62.6786C63.2943 36.5625 63.8847 36.3485 64.3201 35.9676C64.7554 35.5866 65 35.07 65 34.5312V30.4688C65 29.93 64.7554 29.4134 64.3201 29.0324C63.8847 28.6515 63.2943 28.4375 62.6786 28.4375ZM20.8929 28.4375H16.25C15.6343 28.4375 15.0439 28.6515 14.6085 29.0324C14.1732 29.4134 13.9286 29.93 13.9286 30.4688V34.5312C13.9286 35.07 14.1732 35.5866 14.6085 35.9676C15.0439 36.3485 15.6343 36.5625 16.25 36.5625H20.8929C21.5085 36.5625 22.099 36.3485 22.5344 35.9676C22.9697 35.5866 23.2143 35.07 23.2143 34.5312V30.4688C23.2143 29.93 22.9697 29.4134 22.5344 29.0324C22.099 28.6515 21.5085 28.4375 20.8929 28.4375ZM34.8214 52.8125H30.1786C29.5629 52.8125 28.9724 53.0265 28.5371 53.4074C28.1017 53.7884 27.8571 54.305 27.8571 54.8438V58.9062C27.8571 59.445 28.1017 59.9616 28.5371 60.3426C28.9724 60.7235 29.5629 60.9375 30.1786 60.9375H34.8214C35.4371 60.9375 36.0276 60.7235 36.4629 60.3426C36.8983 59.9616 37.1429 59.445 37.1429 58.9062V54.8438C37.1429 54.305 36.8983 53.7884 36.4629 53.4074C36.0276 53.0265 35.4371 52.8125 34.8214 52.8125ZM48.75 52.8125H44.1071C43.4915 52.8125 42.901 53.0265 42.4656 53.4074C42.0303 53.7884 41.7857 54.305 41.7857 54.8438V58.9062C41.7857 59.445 42.0303 59.9616 42.4656 60.3426C42.901 60.7235 43.4915 60.9375 44.1071 60.9375H48.75C49.3657 60.9375 49.9561 60.7235 50.3915 60.3426C50.8269 59.9616 51.0714 59.445 51.0714 58.9062V54.8438C51.0714 54.305 50.8269 53.7884 50.3915 53.4074C49.9561 53.0265 49.3657 52.8125 48.75 52.8125ZM62.6786 52.8125H58.0357C57.42 52.8125 56.8296 53.0265 56.3942 53.4074C55.9589 53.7884 55.7143 54.305 55.7143 54.8438V58.9062C55.7143 59.445 55.9589 59.9616 56.3942 60.3426C56.8296 60.7235 57.42 60.9375 58.0357 60.9375H62.6786C63.2943 60.9375 63.8847 60.7235 64.3201 60.3426C64.7554 59.9616 65 59.445 65 58.9062V54.8438C65 54.305 64.7554 53.7884 64.3201 53.4074C63.8847 53.0265 63.2943 52.8125 62.6786 52.8125ZM62.6786 40.625H58.0357C57.42 40.625 56.8296 40.839 56.3942 41.2199C55.9589 41.6009 55.7143 42.1175 55.7143 42.6562V46.7188C55.7143 47.2575 55.9589 47.7741 56.3942 48.1551C56.8296 48.536 57.42 48.75 58.0357 48.75H62.6786C63.2943 48.75 63.8847 48.536 64.3201 48.1551C64.7554 47.7741 65 47.2575 65 46.7188V42.6562C65 42.1175 64.7554 41.6009 64.3201 41.2199C63.8847 40.839 63.2943 40.625 62.6786 40.625ZM62.6786 16.25H58.0357C57.42 16.25 56.8296 16.464 56.3942 16.8449C55.9589 17.2259 55.7143 17.7425 55.7143 18.2812V22.3438C55.7143 22.8825 55.9589 23.3991 56.3942 23.7801C56.8296 24.161 57.42 24.375 58.0357 24.375H62.6786C63.2943 24.375 63.8847 24.161 64.3201 23.7801C64.7554 23.3991 65 22.8825 65 22.3438V18.2812C65 17.7425 64.7554 17.2259 64.3201 16.8449C63.8847 16.464 63.2943 16.25 62.6786 16.25ZM34.8214 40.625H30.1786C29.5629 40.625 28.9724 40.839 28.5371 41.2199C28.1017 41.6009 27.8571 42.1175 27.8571 42.6562V46.7188C27.8571 47.2575 28.1017 47.7741 28.5371 48.1551C28.9724 48.536 29.5629 48.75 30.1786 48.75H34.8214C35.4371 48.75 36.0276 48.536 36.4629 48.1551C36.8983 47.7741 37.1429 47.2575 37.1429 46.7188V42.6562C37.1429 42.1175 36.8983 41.6009 36.4629 41.2199C36.0276 40.839 35.4371 40.625 34.8214 40.625ZM34.8214 16.25H30.1786C29.5629 16.25 28.9724 16.464 28.5371 16.8449C28.1017 17.2259 27.8571 17.7425 27.8571 18.2812V22.3438C27.8571 22.8825 28.1017 23.3991 28.5371 23.7801C28.9724 24.161 29.5629 24.375 30.1786 24.375H34.8214C35.4371 24.375 36.0276 24.161 36.4629 23.7801C36.8983 23.3991 37.1429 22.8825 37.1429 22.3438V18.2812C37.1429 17.7425 36.8983 17.2259 36.4629 16.8449C36.0276 16.464 35.4371 16.25 34.8214 16.25ZM20.8929 52.8125H16.25C15.6343 52.8125 15.0439 53.0265 14.6085 53.4074C14.1732 53.7884 13.9286 54.305 13.9286 54.8438V58.9062C13.9286 59.445 14.1732 59.9616 14.6085 60.3426C15.0439 60.7235 15.6343 60.9375 16.25 60.9375H20.8929C21.5085 60.9375 22.099 60.7235 22.5344 60.3426C22.9697 59.9616 23.2143 59.445 23.2143 58.9062V54.8438C23.2143 54.305 22.9697 53.7884 22.5344 53.4074C22.099 53.0265 21.5085 52.8125 20.8929 52.8125ZM34.8214 4.0625H30.1786C29.5629 4.0625 28.9724 4.27651 28.5371 4.65744C28.1017 5.03837 27.8571 5.55503 27.8571 6.09375V10.1562C27.8571 10.695 28.1017 11.2116 28.5371 11.5926C28.9724 11.9735 29.5629 12.1875 30.1786 12.1875H34.8214C35.4371 12.1875 36.0276 11.9735 36.4629 11.5926C36.8983 11.2116 37.1429 10.695 37.1429 10.1562V6.09375C37.1429 5.55503 36.8983 5.03837 36.4629 4.65744C36.0276 4.27651 35.4371 4.0625 34.8214 4.0625ZM48.75 4.0625H44.1071C43.4915 4.0625 42.901 4.27651 42.4656 4.65744C42.0303 5.03837 41.7857 5.55503 41.7857 6.09375V10.1562C41.7857 10.695 42.0303 11.2116 42.4656 11.5926C42.901 11.9735 43.4915 12.1875 44.1071 12.1875H48.75C49.3657 12.1875 49.9561 11.9735 50.3915 11.5926C50.8269 11.2116 51.0714 10.695 51.0714 10.1562V6.09375C51.0714 5.55503 50.8269 5.03837 50.3915 4.65744C49.9561 4.27651 49.3657 4.0625 48.75 4.0625ZM62.6786 4.0625H58.0357C57.42 4.0625 56.8296 4.27651 56.3942 4.65744C55.9589 5.03837 55.7143 5.55503 55.7143 6.09375V10.1562C55.7143 10.695 55.9589 11.2116 56.3942 11.5926C56.8296 11.9735 57.42 12.1875 58.0357 12.1875H62.6786C63.2943 12.1875 63.8847 11.9735 64.3201 11.5926C64.7554 11.2116 65 10.695 65 10.1562V6.09375C65 5.55503 64.7554 5.03837 64.3201 4.65744C63.8847 4.27651 63.2943 4.0625 62.6786 4.0625ZM6.96429 28.4375H2.32143C1.70575 28.4375 1.11528 28.6515 0.679931 29.0324C0.244578 29.4134 0 29.93 0 30.4688L0 34.5312C0 35.07 0.244578 35.5866 0.679931 35.9676C1.11528 36.3485 1.70575 36.5625 2.32143 36.5625H6.96429C7.57997 36.5625 8.17043 36.3485 8.60578 35.9676C9.04114 35.5866 9.28571 35.07 9.28571 34.5312V30.4688C9.28571 29.93 9.04114 29.4134 8.60578 29.0324C8.17043 28.6515 7.57997 28.4375 6.96429 28.4375ZM6.96429 52.8125H2.32143C1.70575 52.8125 1.11528 53.0265 0.679931 53.4074C0.244578 53.7884 0 54.305 0 54.8438L0 58.9062C0 59.445 0.244578 59.9616 0.679931 60.3426C1.11528 60.7235 1.70575 60.9375 2.32143 60.9375H6.96429C7.57997 60.9375 8.17043 60.7235 8.60578 60.3426C9.04114 59.9616 9.28571 59.445 9.28571 58.9062V54.8438C9.28571 54.305 9.04114 53.7884 8.60578 53.4074C8.17043 53.0265 7.57997 52.8125 6.96429 52.8125ZM6.96429 40.625H2.32143C1.70575 40.625 1.11528 40.839 0.679931 41.2199C0.244578 41.6009 0 42.1175 0 42.6562L0 46.7188C0 47.2575 0.244578 47.7741 0.679931 48.1551C1.11528 48.536 1.70575 48.75 2.32143 48.75H6.96429C7.57997 48.75 8.17043 48.536 8.60578 48.1551C9.04114 47.7741 9.28571 47.2575 9.28571 46.7188V42.6562C9.28571 42.1175 9.04114 41.6009 8.60578 41.2199C8.17043 40.839 7.57997 40.625 6.96429 40.625ZM6.96429 16.25H2.32143C1.70575 16.25 1.11528 16.464 0.679931 16.8449C0.244578 17.2259 0 17.7425 0 18.2812L0 22.3438C0 22.8825 0.244578 23.3991 0.679931 23.7801C1.11528 24.161 1.70575 24.375 2.32143 24.375H6.96429C7.57997 24.375 8.17043 24.161 8.60578 23.7801C9.04114 23.3991 9.28571 22.8825 9.28571 22.3438V18.2812C9.28571 17.7425 9.04114 17.2259 8.60578 16.8449C8.17043 16.464 7.57997 16.25 6.96429 16.25ZM6.96429 4.0625H2.32143C1.70575 4.0625 1.11528 4.27651 0.679931 4.65744C0.244578 5.03837 0 5.55503 0 6.09375L0 10.1562C0 10.695 0.244578 11.2116 0.679931 11.5926C1.11528 11.9735 1.70575 12.1875 2.32143 12.1875H6.96429C7.57997 12.1875 8.17043 11.9735 8.60578 11.5926C9.04114 11.2116 9.28571 10.695 9.28571 10.1562V6.09375C9.28571 5.55503 9.04114 5.03837 8.60578 4.65744C8.17043 4.27651 7.57997 4.0625 6.96429 4.0625ZM20.8929 4.0625H16.25C15.6343 4.0625 15.0439 4.27651 14.6085 4.65744C14.1732 5.03837 13.9286 5.55503 13.9286 6.09375V10.1562C13.9286 10.695 14.1732 11.2116 14.6085 11.5926C15.0439 11.9735 15.6343 12.1875 16.25 12.1875H20.8929C21.5085 12.1875 22.099 11.9735 22.5344 11.5926C22.9697 11.2116 23.2143 10.695 23.2143 10.1562V6.09375C23.2143 5.55503 22.9697 5.03837 22.5344 4.65744C22.099 4.27651 21.5085 4.0625 20.8929 4.0625Z" fill="#010101"/>
</g>
<defs>
<clipPath id="clip0_133_3597">
<rect width="65" height="65" fill="white"/>
</clipPath>
</defs>
</svg>
