<svg width="25" height="26" viewBox="0 0 25 26" fill="none" xmlns="http://www.w3.org/2000/svg">
<g id="calendar-alt" clip-path="url(#clip0_133_655)">
<path id="Vector" d="M0 23.1562C0 24.4502 1.19978 25.5 2.67857 25.5H22.3214C23.8002 25.5 25 24.4502 25 23.1562V9.875H0V23.1562ZM17.8571 13.5859C17.8571 13.2637 18.1585 13 18.5268 13H20.7589C21.1272 13 21.4286 13.2637 21.4286 13.5859V15.5391C21.4286 15.8613 21.1272 16.125 20.7589 16.125H18.5268C18.1585 16.125 17.8571 15.8613 17.8571 15.5391V13.5859ZM17.8571 19.8359C17.8571 19.5137 18.1585 19.25 18.5268 19.25H20.7589C21.1272 19.25 21.4286 19.5137 21.4286 19.8359V21.7891C21.4286 22.1113 21.1272 22.375 20.7589 22.375H18.5268C18.1585 22.375 17.8571 22.1113 17.8571 21.7891V19.8359ZM10.7143 13.5859C10.7143 13.2637 11.0156 13 11.3839 13H13.6161C13.9844 13 14.2857 13.2637 14.2857 13.5859V15.5391C14.2857 15.8613 13.9844 16.125 13.6161 16.125H11.3839C11.0156 16.125 10.7143 15.8613 10.7143 15.5391V13.5859ZM10.7143 19.8359C10.7143 19.5137 11.0156 19.25 11.3839 19.25H13.6161C13.9844 19.25 14.2857 19.5137 14.2857 19.8359V21.7891C14.2857 22.1113 13.9844 22.375 13.6161 22.375H11.3839C11.0156 22.375 10.7143 22.1113 10.7143 21.7891V19.8359ZM3.57143 13.5859C3.57143 13.2637 3.87277 13 4.24107 13H6.47321C6.84152 13 7.14286 13.2637 7.14286 13.5859V15.5391C7.14286 15.8613 6.84152 16.125 6.47321 16.125H4.24107C3.87277 16.125 3.57143 15.8613 3.57143 15.5391V13.5859ZM3.57143 19.8359C3.57143 19.5137 3.87277 19.25 4.24107 19.25H6.47321C6.84152 19.25 7.14286 19.5137 7.14286 19.8359V21.7891C7.14286 22.1113 6.84152 22.375 6.47321 22.375H4.24107C3.87277 22.375 3.57143 22.1113 3.57143 21.7891V19.8359ZM22.3214 3.625H19.6429V1.28125C19.6429 0.851562 19.2411 0.5 18.75 0.5H16.9643C16.4732 0.5 16.0714 0.851562 16.0714 1.28125V3.625H8.92857V1.28125C8.92857 0.851562 8.52679 0.5 8.03571 0.5H6.25C5.75893 0.5 5.35714 0.851562 5.35714 1.28125V3.625H2.67857C1.19978 3.625 0 4.6748 0 5.96875V8.3125H25V5.96875C25 4.6748 23.8002 3.625 22.3214 3.625Z" fill="#010101"/>
</g>
<defs>
<clipPath id="clip0_133_655">
<rect width="25" height="25" fill="white" transform="translate(0 0.5)"/>
</clipPath>
</defs>
</svg>
