<svg width="25" height="26" viewBox="0 0 25 26" fill="none" xmlns="http://www.w3.org/2000/svg">
<g id="check-double" clip-path="url(#clip0_133_671)">
<path id="Vector" d="M24.6587 9.03467L22.7251 7.10107C22.2661 6.64209 21.5239 6.64209 21.0698 7.10107L9.37549 18.7954L3.93604 13.3511C3.47705 12.8921 2.73486 12.8921 2.28076 13.3511L0.342285 15.2895C-0.116699 15.7485 -0.116699 16.4907 0.342285 16.9497L8.54541 25.1577C9.00439 25.6167 9.74658 25.6167 10.2007 25.1577L24.6538 10.6948C25.1128 10.231 25.1128 9.48877 24.6587 9.03467ZM8.82373 14.2104C9.12646 14.5181 9.62451 14.5181 9.92725 14.2104L20.0835 4.04443C20.3862 3.73682 20.3862 3.24365 20.0835 2.94092L17.8765 0.729004C17.5737 0.421387 17.0757 0.421387 16.7729 0.729004L9.37549 8.12646L6.67041 5.4165C6.36768 5.10889 5.86963 5.10889 5.56689 5.4165L3.35498 7.62842C3.05225 7.93603 3.05225 8.4292 3.35498 8.73193L8.82373 14.2104Z" fill="#010101"/>
</g>
<defs>
<clipPath id="clip0_133_671">
<rect width="25" height="25" fill="white" transform="translate(0 0.5)"/>
</clipPath>
</defs>
</svg>
