<svg width="33" height="25" viewBox="0 0 33 25" fill="none" xmlns="http://www.w3.org/2000/svg">
<g id="crown" clip-path="url(#clip0_133_757)">
<path id="Vector" d="M26.6562 21.875H6.34375C5.91406 21.875 5.5625 22.2266 5.5625 22.6562V24.2188C5.5625 24.6484 5.91406 25 6.34375 25H26.6562C27.0859 25 27.4375 24.6484 27.4375 24.2188V22.6562C27.4375 22.2266 27.0859 21.875 26.6562 21.875ZM29.7812 6.25C28.4873 6.25 27.4375 7.2998 27.4375 8.59375C27.4375 8.94043 27.5156 9.2627 27.6523 9.56055L24.1172 11.6797C23.3652 12.1289 22.3936 11.875 21.959 11.1133L17.9795 4.15039C18.502 3.7207 18.8438 3.07617 18.8438 2.34375C18.8438 1.0498 17.7939 0 16.5 0C15.2061 0 14.1562 1.0498 14.1562 2.34375C14.1562 3.07617 14.498 3.7207 15.0205 4.15039L11.041 11.1133C10.6064 11.875 9.62988 12.1289 8.88281 11.6797L5.35254 9.56055C5.48438 9.26758 5.56738 8.94043 5.56738 8.59375C5.56738 7.2998 4.51758 6.25 3.22363 6.25C1.92969 6.25 0.875 7.2998 0.875 8.59375C0.875 9.8877 1.9248 10.9375 3.21875 10.9375C3.3457 10.9375 3.47266 10.918 3.59473 10.8984L7.125 20.3125H25.875L29.4053 10.8984C29.5273 10.918 29.6543 10.9375 29.7812 10.9375C31.0752 10.9375 32.125 9.8877 32.125 8.59375C32.125 7.2998 31.0752 6.25 29.7812 6.25Z" fill="#010101"/>
</g>
<defs>
<clipPath id="clip0_133_757">
<rect width="31.25" height="25" fill="white" transform="translate(0.875)"/>
</clipPath>
</defs>
</svg>
