<svg width="30" height="26" viewBox="0 0 30 26" fill="none" xmlns="http://www.w3.org/2000/svg">
<g id="desktop" clip-path="url(#clip0_133_3539)">
<path id="Vector" d="M26.6992 0.53125H3.26172C1.96777 0.53125 0.917969 1.58105 0.917969 2.875V18.5C0.917969 19.7939 1.96777 20.8438 3.26172 20.8438H12.6367L11.8555 23.1875H8.33984C7.69043 23.1875 7.16797 23.71 7.16797 24.3594C7.16797 25.0088 7.69043 25.5312 8.33984 25.5312H21.6211C22.2705 25.5312 22.793 25.0088 22.793 24.3594C22.793 23.71 22.2705 23.1875 21.6211 23.1875H18.1055L17.3242 20.8438H26.6992C27.9932 20.8438 29.043 19.7939 29.043 18.5V2.875C29.043 1.58105 27.9932 0.53125 26.6992 0.53125ZM25.918 17.7188H4.04297V3.65625H25.918V17.7188Z" fill="#FEFEFE"/>
</g>
<defs>
<clipPath id="clip0_133_3539">
<rect width="28.125" height="25" fill="white" transform="translate(0.917969 0.53125)"/>
</clipPath>
</defs>
</svg>
