<svg width="40" height="35" viewBox="0 0 40 35" fill="none" xmlns="http://www.w3.org/2000/svg">
<g id="envelope-open-text" clip-path="url(#clip0_133_3050)">
<path id="Vector" d="M13.5352 14.7658H25.8398C26.5197 14.7658 27.0703 14.2764 27.0703 13.6721V12.5783C27.0703 11.974 26.5197 11.4846 25.8398 11.4846H13.5352C12.8553 11.4846 12.3047 11.974 12.3047 12.5783V13.6721C12.3047 14.2764 12.8553 14.7658 13.5352 14.7658ZM12.3047 20.2346C12.3047 20.8389 12.8553 21.3283 13.5352 21.3283H25.8398C26.5197 21.3283 27.0703 20.8389 27.0703 20.2346V19.1408C27.0703 18.5365 26.5197 18.0471 25.8398 18.0471H13.5352C12.8553 18.0471 12.3047 18.5365 12.3047 19.1408V20.2346ZM19.6875 28.515C18.4247 28.515 17.162 28.1691 16.0838 27.4766L0 17.1488V31.719C0 33.5312 1.65267 35.0002 3.69141 35.0002H35.6836C37.7223 35.0002 39.375 33.5312 39.375 31.719V17.1488L23.2912 27.4766C22.213 28.1684 20.9503 28.515 19.6875 28.515ZM37.9607 11.1394C37.2801 10.665 36.6349 10.2186 35.6836 9.58009V6.56271C35.6836 4.7505 34.0309 3.28146 31.9922 3.28146H26.0283C25.7945 3.13107 25.5768 2.99025 25.333 2.83302C24.0403 1.99425 21.4717 -0.0237149 19.6875 0.000210914C17.9033 -0.0237149 15.3355 1.99425 14.042 2.83302C13.7982 2.99025 13.5805 3.13107 13.3467 3.28146H7.38281C5.34408 3.28146 3.69141 4.7505 3.69141 6.56271V9.58009C2.7401 10.2179 2.09487 10.665 1.41427 11.1394C0.97373 11.4463 0.617476 11.8382 0.372458 12.2855C0.12744 12.7328 7.58127e-05 13.2238 0 13.7213L0 14.4493L7.38281 19.1901V6.56271H31.9922V19.1901L39.375 14.4493V13.7213C39.375 12.7137 38.8536 11.7614 37.9607 11.1394Z" fill="black"/>
</g>
<defs>
<clipPath id="clip0_133_3050">
<rect width="39.375" height="35" fill="white"/>
</clipPath>
</defs>
</svg>
