<svg width="40" height="40" viewBox="0 0 40 40" fill="none" xmlns="http://www.w3.org/2000/svg">
<g id="grip-horizontal">
<path id="Vector" d="M8.57143 22.5H2.85714C1.27946 22.5 0 23.6195 0 25V30C0 31.3805 1.27946 32.5 2.85714 32.5H8.57143C10.1491 32.5 11.4286 31.3805 11.4286 30V25C11.4286 23.6195 10.1491 22.5 8.57143 22.5ZM22.8571 22.5H17.1429C15.5652 22.5 14.2857 23.6195 14.2857 25V30C14.2857 31.3805 15.5652 32.5 17.1429 32.5H22.8571C24.4348 32.5 25.7143 31.3805 25.7143 30V25C25.7143 23.6195 24.4348 22.5 22.8571 22.5ZM37.1429 22.5H31.4286C29.8509 22.5 28.5714 23.6195 28.5714 25V30C28.5714 31.3805 29.8509 32.5 31.4286 32.5H37.1429C38.7205 32.5 40 31.3805 40 30V25C40 23.6195 38.7205 22.5 37.1429 22.5ZM8.57143 7.5H2.85714C1.27946 7.5 0 8.61953 0 10V15C0 16.3805 1.27946 17.5 2.85714 17.5H8.57143C10.1491 17.5 11.4286 16.3805 11.4286 15V10C11.4286 8.61953 10.1491 7.5 8.57143 7.5ZM22.8571 7.5H17.1429C15.5652 7.5 14.2857 8.61953 14.2857 10V15C14.2857 16.3805 15.5652 17.5 17.1429 17.5H22.8571C24.4348 17.5 25.7143 16.3805 25.7143 15V10C25.7143 8.61953 24.4348 7.5 22.8571 7.5ZM37.1429 7.5H31.4286C29.8509 7.5 28.5714 8.61953 28.5714 10V15C28.5714 16.3805 29.8509 17.5 31.4286 17.5H37.1429C38.7205 17.5 40 16.3805 40 15V10C40 8.61953 38.7205 7.5 37.1429 7.5Z" fill="black"/>
</g>
</svg>
