<svg width="32" height="26" viewBox="0 0 32 26" fill="none" xmlns="http://www.w3.org/2000/svg">
<g id="laptop" clip-path="url(#clip0_133_3541)">
<path id="Vector" d="M30.4688 20.8438H18.6299C18.5938 21.811 17.9116 22.4062 17.0312 22.4062H14.0625C13.1499 22.4062 12.4502 21.5532 12.4624 20.8438H0.78125C0.351562 20.8438 0 21.1953 0 21.625V22.4062C0 24.125 1.40625 25.5312 3.125 25.5312H28.125C29.8438 25.5312 31.25 24.125 31.25 22.4062V21.625C31.25 21.1953 30.8984 20.8438 30.4688 20.8438ZM28.125 2.875C28.125 1.58594 27.0703 0.53125 25.7812 0.53125H5.46875C4.17969 0.53125 3.125 1.58594 3.125 2.875V19.2812H28.125V2.875ZM25 16.1562H6.25V3.65625H25V16.1562Z" fill="#FEFEFE"/>
</g>
<defs>
<clipPath id="clip0_133_3541">
<rect width="31.25" height="25" fill="white" transform="translate(0 0.53125)"/>
</clipPath>
</defs>
</svg>
