<svg width="32" height="26" viewBox="0 0 32 26" fill="none" xmlns="http://www.w3.org/2000/svg">
<g id="laptop-house" clip-path="url(#clip0_133_663)">
<path id="Vector" d="M13.2812 14.5625H10.1562C9.94905 14.5625 9.75034 14.4802 9.60382 14.3337C9.45731 14.1872 9.375 13.9885 9.375 13.7812V10.6562C9.375 10.449 9.45731 10.2503 9.60382 10.1038C9.75034 9.95731 9.94905 9.875 10.1562 9.875H13.2812C13.4885 9.875 13.6872 9.95731 13.8337 10.1038C13.9802 10.2503 14.0625 10.449 14.0625 10.6562V12.4688C14.605 11.8398 15.3809 11.4375 16.25 11.4375H22.9365L23.2612 11.0698C23.367 10.938 23.4287 10.7762 23.4375 10.6074C23.4264 10.4121 23.3439 10.2277 23.2056 10.0894L20.3125 7.53125V2.84375C20.3125 2.63655 20.2302 2.43784 20.0837 2.29132C19.9372 2.14481 19.7385 2.0625 19.5312 2.0625H17.9688C17.7615 2.0625 17.5628 2.14481 17.4163 2.29132C17.2698 2.43784 17.1875 2.63655 17.1875 2.84375V4.7627L12.8662 0.935547C12.5977 0.695312 12.0825 0.5 11.7212 0.5C11.3599 0.5 10.8457 0.695312 10.5752 0.935547L0.233398 10.0908C0.0942542 10.2281 0.0110758 10.4122 0 10.6074C0.0084344 10.7746 0.0690552 10.935 0.17334 11.0659L1.09082 12.1064C1.22931 12.2462 1.41486 12.3294 1.61133 12.3398C1.77722 12.3315 1.9365 12.2722 2.06738 12.1699L3.125 11.2363V19.25C3.125 19.6644 3.28962 20.0618 3.58265 20.3549C3.87567 20.6479 4.2731 20.8125 4.6875 20.8125H13.2812V14.5625ZM30.729 22.375H28.9062V14.5625C28.9062 13.6997 28.2769 13 27.5 13H16.25C15.4731 13 14.8438 13.6997 14.8438 14.5625V22.375H13.021C12.8828 22.375 12.7503 22.4299 12.6526 22.5276C12.5549 22.6253 12.5 22.7578 12.5 22.896V23.4165C12.5019 23.9679 12.7216 24.4962 13.1112 24.8864C13.5007 25.2766 14.0287 25.4972 14.5801 25.5H29.1699C29.7213 25.4972 30.2493 25.2766 30.6388 24.8864C31.0284 24.4962 31.2481 23.9679 31.25 23.4165V22.896C31.25 22.7578 31.1951 22.6253 31.0974 22.5276C30.9997 22.4299 30.8672 22.375 30.729 22.375ZM26.5625 22.375H17.1875V15.3438H26.5625V22.375Z" fill="#010101"/>
</g>
<defs>
<clipPath id="clip0_133_663">
<rect width="31.25" height="25" fill="white" transform="translate(0 0.5)"/>
</clipPath>
</defs>
</svg>
