<svg width="31" height="35" viewBox="0 0 31 35" fill="none" xmlns="http://www.w3.org/2000/svg">
<g id="rss-square" clip-path="url(#clip0_133_315)">
<path id="Vector" d="M27.3438 2.1875H3.28125C1.46904 2.1875 0 3.65654 0 5.46875V29.5312C0 31.3435 1.46904 32.8125 3.28125 32.8125H27.3438C29.156 32.8125 30.625 31.3435 30.625 29.5312V5.46875C30.625 3.65654 29.156 2.1875 27.3438 2.1875ZM7.65625 28.4375C5.84404 28.4375 4.375 26.9685 4.375 25.1562C4.375 23.344 5.84404 21.875 7.65625 21.875C9.46846 21.875 10.9375 23.344 10.9375 25.1562C10.9375 26.9685 9.46846 28.4375 7.65625 28.4375ZM18.4251 28.4375H16.078C15.6671 28.4375 15.3225 28.1206 15.2958 27.7106C14.9394 22.2384 10.5624 17.8723 5.10187 17.5166C4.69191 17.49 4.375 17.1454 4.375 16.7345V14.3874C4.375 13.9407 4.74879 13.5823 5.1949 13.6064C12.7518 14.0148 18.7982 20.0688 19.2061 27.6176C19.2302 28.0637 18.8718 28.4375 18.4251 28.4375ZM25.468 28.4375H23.1209C22.6998 28.4375 22.357 28.1038 22.3398 27.6829C21.9571 18.3495 14.4645 10.8555 5.12962 10.4728C4.70873 10.4555 4.375 10.1127 4.375 9.69158V7.34453C4.375 6.90334 4.7399 6.54719 5.18075 6.56305C16.6535 6.97491 25.8396 16.2148 26.2495 27.6317C26.2653 28.0726 25.9092 28.4375 25.468 28.4375Z" fill="#010101"/>
</g>
<defs>
<clipPath id="clip0_133_315">
<rect width="30.625" height="35" fill="white"/>
</clipPath>
</defs>
</svg>
